<svg width="150" height="150" viewBox="0 0 1897 570" fill="none" xmlns="http://www.w3.org/2000/svg">
<path d="M262.122 324.624C287.204 329.966 307.349 342.404 322.556 361.935C337.774 381.467 345.372 403.768 345.372 428.851C345.372 465.034 332.727 493.708 307.447 514.882C282.157 536.055 246.904 546.642 201.677 546.642H0V113.696H194.889C238.879 113.696 273.311 123.768 298.185 143.913C323.059 164.058 335.496 191.406 335.496 225.937C335.496 251.424 328.818 272.609 315.45 289.458C302.094 306.318 284.303 318.033 262.1 324.613L262.122 324.624ZM105.475 288.856H174.547C191.812 288.856 205.082 285.057 214.322 277.448C223.573 269.839 228.193 258.639 228.193 243.837C228.193 229.035 223.573 217.726 214.322 209.92C205.071 202.114 191.812 198.205 174.547 198.205H105.475V288.867V288.856ZM183.185 461.542C200.866 461.542 214.541 457.535 224.197 449.521C233.864 441.507 238.693 429.891 238.693 414.673C238.693 399.466 233.656 387.532 223.584 378.905C213.512 370.267 199.64 365.953 181.959 365.953H105.486V461.542H183.196H183.185ZM581.601 373.967C581.601 338.605 588.279 307.566 601.647 280.842C615.004 254.117 633.2 233.557 656.224 219.171C679.248 204.785 704.943 197.581 733.31 197.581C755.918 197.581 776.588 202.311 795.288 211.77C813.998 221.229 828.691 233.973 839.387 250.012V90.2777H944.851V546.664H839.387V497.321C829.523 513.765 815.443 526.925 797.138 536.8C778.844 546.664 757.56 551.602 733.31 551.602C704.943 551.602 679.237 544.299 656.224 529.705C633.2 515.111 615.004 494.343 601.647 467.421C588.279 440.488 581.601 409.341 581.601 373.978V373.967ZM839.398 374.591C839.398 348.272 832.096 327.514 817.502 312.296C802.908 297.089 785.128 289.48 764.151 289.48C743.185 289.48 725.406 296.98 710.801 311.99C696.207 326.989 688.904 347.659 688.904 373.967C688.904 400.287 696.207 421.143 710.801 436.569C725.395 451.984 743.174 459.692 764.151 459.692C785.117 459.692 802.908 452.083 817.502 436.876C832.096 421.669 839.398 400.9 839.398 374.591ZM1408.65 546.664H1303.19L1126.8 279.616V546.664H1021.34V113.718H1126.8L1303.19 382.003V113.718H1408.65V546.664ZM1772.52 250.636C1764.72 236.239 1753.51 225.247 1738.91 217.638C1724.32 210.029 1707.15 206.23 1687.41 206.23C1653.29 206.23 1625.94 217.43 1605.39 239.841C1584.83 262.241 1574.55 292.162 1574.55 329.572C1574.55 369.457 1585.34 400.604 1606.92 423.015C1628.51 445.415 1658.21 456.626 1696.04 456.626C1721.94 456.626 1743.84 450.046 1761.72 436.887C1779.61 423.727 1792.66 404.819 1800.88 380.142H1667.05V302.432H1896.48V400.495C1888.67 426.814 1875.41 451.273 1856.7 473.892C1837.99 496.511 1814.25 514.805 1785.48 528.786C1756.69 542.767 1724.21 549.752 1688.04 549.752C1645.27 549.752 1607.14 540.402 1573.63 521.691C1540.12 502.981 1514 476.979 1495.3 443.674C1476.59 410.37 1467.24 372.336 1467.24 329.572C1467.24 286.809 1476.59 248.676 1495.3 215.164C1514.01 181.651 1540.02 155.551 1573.32 136.84C1606.63 118.13 1644.66 108.78 1687.42 108.78C1739.23 108.78 1782.91 121.327 1818.47 146.398C1854.03 171.48 1877.57 206.23 1889.09 250.625H1772.52V250.636Z" fill="#735AF4"/>
<path fill-rule="evenodd" clip-rule="evenodd" d="M401.939 453.101C401.939 509.802 454.272 565.802 517.333 569.426C522.72 569.732 525.566 571.998 525.566 564.762V300.844C525.566 282.835 519.512 266.171 513.425 254.139C503.582 234.673 507.819 241.527 495.809 227.13L480.536 211.978C458.804 194.132 432.463 183.107 401.95 183.107V453.112L401.939 453.101Z" fill="#735AF4"/>
<path fill-rule="evenodd" clip-rule="evenodd" d="M389.788 73.4714C389.788 111.549 421.045 146.562 458.695 146.562C485.946 146.562 498.273 142.806 517.006 123.767C544.529 95.7837 544.529 51.1698 517.006 23.1862C493.686 -0.516605 459.692 -6.35194 430.931 7.09244C419.479 12.4461 418.483 14.9532 410.294 22.9673C409.878 23.3834 408.607 24.5109 408.191 24.927C396.816 36.2693 389.788 56.9834 389.788 73.4823V73.4714Z" fill="#735AF4"/>
</svg>
